<svg width="248" height="85" viewBox="0 0 248 85" fill="none" xmlns="http://www.w3.org/2000/svg">
<path fill-rule="evenodd" clip-rule="evenodd" d="M133.024 39.9673L98.7091 1.241C97.264 -0.393221 94.4616 -0.417309 92.9886 1.19183L58.0108 39.3226C57.5081 39.8704 57.1754 40.5519 57.0526 41.2845C56.93 42.0169 57.0228 42.7696 57.3194 43.4505C57.6163 44.1318 58.1043 44.7126 58.7249 45.1226C59.3452 45.5326 60.0716 45.7543 60.8156 45.7608L68.5148 45.8271L68.2827 72.7268C68.274 73.7461 68.6712 74.7269 69.387 75.4539C70.1025 76.1809 71.0783 76.5941 72.0993 76.6028L92.6163 76.7793V71.097H80.8207V62.4938H100.679C101.235 62.4938 101.725 62.2824 102.148 61.8594C102.572 61.4101 102.784 60.8815 102.784 60.2736C102.784 59.6658 102.572 59.2825 102.148 59.1239C101.725 58.9388 101.235 58.8465 100.679 58.8465H91.6235C90.1141 58.8465 88.6977 58.5688 87.3738 58.0137C86.0765 57.4323 84.9377 56.6526 83.9581 55.6747C83.0051 54.6704 82.2373 53.5074 81.6547 52.1858C81.0986 50.8642 80.8207 49.4503 80.8207 47.9436C80.8207 46.4637 81.0986 45.0761 81.6547 43.7807C82.2373 42.4594 83.0051 41.3097 83.9581 40.3316C84.9377 39.3537 86.0765 38.5872 87.3738 38.0321C88.6977 37.4507 90.1141 37.1601 91.6235 37.1601H92.6163V26.4159H99.924V37.1601H109.217V45.8425H91.6235C91.0145 45.8425 90.498 46.0539 90.0745 46.4767C89.6507 46.8732 89.439 47.3622 89.439 47.9436C89.439 48.5515 89.6507 49.0671 90.0745 49.4898C90.498 49.9129 91.0145 50.1242 91.6235 50.1242H100.679C102.161 50.1242 103.551 50.3754 104.849 50.8775C106.173 51.3798 107.324 52.0802 108.304 52.9788C109.284 53.8773 110.051 54.9478 110.608 56.1901C111.19 57.4323 111.481 58.7934 111.481 60.2736C111.481 61.7801 111.19 63.1942 110.608 64.5158C110.051 65.8374 109.284 66.9871 108.304 67.965C107.324 68.9166 106.173 69.6831 104.849 70.2644C103.551 70.8195 102.161 71.097 100.679 71.097H99.924V76.8421L118.294 76.9998C119.316 77.0088 120.298 76.6123 121.026 75.8978C121.755 75.1832 122.169 74.2094 122.177 73.1902L122.409 46.2902L130.109 46.3565C130.854 46.366 131.586 46.1589 132.216 45.7603C132.846 45.3616 133.345 44.7886 133.654 44.1112C133.963 43.434 134.068 42.6816 133.956 41.9457C133.845 41.2098 133.521 40.5224 133.024 39.9673Z" fill="#00847C"/>
<path d="M127.906 72.082C127.19 71.8477 126.773 71.3073 126.656 70.4609C126.396 68.6641 126.266 67.0234 126.266 65.5391C126.266 64.0417 126.279 62.9349 126.305 62.2188C126.344 61.4896 126.396 60.7865 126.461 60.1094C126.695 57.2839 127.014 55.6302 127.418 55.1484C127.626 54.888 127.965 54.6927 128.434 54.5625C128.915 54.4193 129.553 54.276 130.348 54.1328C131.155 53.9766 132.001 53.8333 132.887 53.7031C133.785 53.5599 134.664 53.4297 135.523 53.3125C136.396 53.1953 137.138 53.0911 137.75 53L138.434 57.3945L136.93 57.5508C134.143 57.8372 132.366 58.0781 131.598 58.2734C131.389 59.0807 131.246 60.2135 131.168 61.6719C131.09 63.1302 131.051 64.1979 131.051 64.875C131.051 66.5547 131.116 67.8112 131.246 68.6445L138.707 70.0312L137.555 74.2305C136.487 74.0612 135.484 73.8789 134.547 73.6836L132.184 73.1953C130.048 72.7266 128.622 72.3555 127.906 72.082ZM146.852 61.4375C146.852 64.5755 147.014 67.2969 147.34 69.6016L151.188 69.4062C151.891 66.6198 152.242 63.8984 152.242 61.2422C152.242 60.1745 152.171 59.224 152.027 58.3906C151.246 58 148.486 57.8047 143.746 57.8047H142.75C142.477 57.8047 142.177 57.8177 141.852 57.8438L142.691 53.3125C142.913 53.2995 143.115 53.2865 143.297 53.2734C143.492 53.2474 143.688 53.2344 143.883 53.2344L144.469 53.1953C144.664 53.1953 145.211 53.1953 146.109 53.1953C148.688 53.1953 151.513 53.5404 154.586 54.2305C155.562 54.4779 156.161 54.9141 156.383 55.5391C156.721 56.5026 156.891 58.0716 156.891 60.2461C156.891 64.2174 156.285 68.0586 155.074 71.7695C154.97 72.1081 154.846 72.3945 154.703 72.6289C154.573 72.8633 154.339 73.013 154 73.0781C153.661 73.1562 153.264 73.2279 152.809 73.293C152.353 73.3581 151.904 73.4167 151.461 73.4688C150.497 73.5599 149.833 73.6055 149.469 73.6055C149.104 73.6055 148.714 73.599 148.297 73.5859C147.88 73.5859 147.424 73.5729 146.93 73.5469C145.628 73.4818 144.749 73.3646 144.293 73.1953C143.837 73.0391 143.525 72.7656 143.355 72.375C143.199 71.9844 143.043 71.3594 142.887 70.5C142.522 68.4948 142.34 66.2096 142.34 63.6445C142.34 62.668 142.366 61.6979 142.418 60.7344L146.852 59.8555V61.4375ZM161.637 54.3281L165.797 53.8008L166.48 56.7695L169.918 53.8008H174.723C174.97 53.8008 175.315 53.9896 175.758 54.3672C176.5 54.9792 176.871 55.526 176.871 56.0078L176.188 73.0391L171.832 73.3906L171.754 58.3125C171.598 58.2604 171.383 58.2344 171.109 58.2344C170.836 58.2344 170.582 58.2474 170.348 58.2734C170.126 58.2995 169.885 58.3385 169.625 58.3906C169.013 58.4948 168.512 58.6185 168.121 58.7617L166.676 59.2891L166.148 72.8438L161.988 73.1562L161.637 54.3281ZM182.066 54.3281L186.227 53.8008L186.91 56.7695L190.348 53.8008H195.152C195.4 53.8008 195.745 53.9896 196.188 54.3672C196.93 54.9792 197.301 55.526 197.301 56.0078L196.617 73.0391L192.262 73.3906L192.184 58.3125C192.027 58.2604 191.812 58.2344 191.539 58.2344C191.266 58.2344 191.012 58.2474 190.777 58.2734C190.556 58.2995 190.315 58.3385 190.055 58.3906C189.443 58.4948 188.941 58.6185 188.551 58.7617L187.105 59.2891L186.578 72.8438L182.418 73.1562L182.066 54.3281ZM202.125 59.9922C202.125 58.2474 202.307 57.2383 202.672 56.9648C203.036 56.6914 203.447 56.418 203.902 56.1445C204.358 55.8581 204.859 55.5781 205.406 55.3047C205.953 55.0312 206.52 54.7708 207.105 54.5234C207.704 54.276 208.29 54.0547 208.863 53.8594C210.087 53.4427 210.999 53.2344 211.598 53.2344C212.21 53.2344 212.704 53.2669 213.082 53.332C213.46 53.3841 213.805 53.4753 214.117 53.6055C214.833 53.9049 215.237 54.3411 215.328 54.9141C215.758 57.6354 215.973 60.8776 215.973 64.6406V65.793L206.617 65.9102V68.4492C207.633 68.6966 208.844 68.9245 210.25 69.1328L213.609 69.6797C214.469 69.8099 215.348 69.9596 216.246 70.1289L215.094 74.4062C211.513 73.8464 207.711 72.9414 203.688 71.6914C202.763 71.3919 202.288 70.8516 202.262 70.0703L202.125 59.9922ZM211.578 61.5938C211.578 60.3698 211.454 59.0807 211.207 57.7266C210.686 57.7266 210.27 57.7526 209.957 57.8047C209.645 57.8568 209.332 57.9284 209.02 58.0195C208.707 58.1107 208.388 58.2148 208.062 58.332C207.294 58.6055 206.786 58.8398 206.539 59.0352V62.5508L211.578 62.0039V61.5938ZM222.242 72.082C221.526 71.8477 221.109 71.3073 220.992 70.4609C220.732 68.6641 220.602 67.0234 220.602 65.5391C220.602 64.0417 220.615 62.9349 220.641 62.2188C220.68 61.4896 220.732 60.7865 220.797 60.1094C221.031 57.2839 221.35 55.6302 221.754 55.1484C221.962 54.888 222.301 54.6927 222.77 54.5625C223.251 54.4193 223.889 54.276 224.684 54.1328C225.491 53.9766 226.337 53.8333 227.223 53.7031C228.121 53.5599 229 53.4297 229.859 53.3125C230.732 53.1953 231.474 53.0911 232.086 53L232.77 57.3945L231.266 57.5508C228.479 57.8372 226.702 58.0781 225.934 58.2734C225.725 59.0807 225.582 60.2135 225.504 61.6719C225.426 63.1302 225.387 64.1979 225.387 64.875C225.387 66.5547 225.452 67.8112 225.582 68.6445L233.043 70.0312L231.891 74.2305C230.823 74.0612 229.82 73.8789 228.883 73.6836L226.52 73.1953C224.384 72.7266 222.958 72.3555 222.242 72.082ZM236.598 49.1523L241.363 48.2344V54.3672L246.266 53.4492L246.637 57.8828L241.441 58.2734L241.07 68.8398C242.034 69.1393 242.867 69.3737 243.57 69.543C245.328 69.9596 246.402 70.2201 246.793 70.3242L245.758 74.4062C242.867 73.7682 240.335 73.0326 238.16 72.1992C237.275 71.8737 236.832 71.2878 236.832 70.4414L236.598 49.1523Z" fill="black"/>
<path d="M4.92188 71.75C4.38802 71.5547 4.05599 71.4115 3.92578 71.3203C3.79557 71.2161 3.67839 71.0859 3.57422 70.9297C2.98828 70.0443 2.5651 67.4141 2.30469 63.0391C2.23958 62.0625 2.20703 61.1055 2.20703 60.168C2.20703 59.2305 2.22656 58.3646 2.26562 57.5703C2.30469 56.763 2.35677 56.0013 2.42188 55.2852C2.5651 53.6706 2.69531 52.7005 2.8125 52.375L3.04688 51.6328C3.25521 51.0078 3.73047 50.5456 4.47266 50.2461C4.79818 50.1159 5.22135 49.9661 5.74219 49.7969L7.46094 49.2109C8.09896 49.0156 8.76302 48.8203 9.45312 48.625L11.4453 48.0391C12.7865 47.6615 13.9193 47.375 14.8438 47.1797L15.8984 51.9258C15.5729 52.0039 15.1758 52.0885 14.707 52.1797L9.94141 53.0781L8.59375 53.3516C8.20312 53.4427 7.91016 53.5143 7.71484 53.5664C7.35026 55.0247 7.16797 57.1406 7.16797 59.9141C7.16797 63.5339 7.38932 66.2031 7.83203 67.9219C8.37891 68.0521 8.97135 68.1823 9.60938 68.3125L13.6328 69.1328L15.5273 69.4844L14.4336 73.9961C13.2617 73.7878 12.194 73.5664 11.2305 73.332C7.57161 72.4596 5.46875 71.9323 4.92188 71.75ZM19.7852 57.8438L19.7461 54.2305L23.9062 53.8008L24.5898 56.7695L27.5781 53.4883H29.9023L30.8789 58.0586C30.8789 58.0586 29.8568 58.2799 27.8125 58.7227C26.8359 58.931 25.8268 59.1589 24.7852 59.4062L24.5117 72.7656L20.0977 73.1562L19.7852 57.8438ZM33.125 59.9922C33.125 58.2474 33.3073 57.2383 33.6719 56.9648C34.0365 56.6914 34.4466 56.418 34.9023 56.1445C35.3581 55.8581 35.8594 55.5781 36.4062 55.3047C36.9531 55.0312 37.5195 54.7708 38.1055 54.5234C38.7044 54.276 39.2904 54.0547 39.8633 53.8594C41.0872 53.4427 41.9987 53.2344 42.5977 53.2344C43.2096 53.2344 43.7044 53.2669 44.082 53.332C44.4596 53.3841 44.8047 53.4753 45.1172 53.6055C45.8333 53.9049 46.237 54.3411 46.3281 54.9141C46.7578 57.6354 46.9727 60.8776 46.9727 64.6406V65.793L37.6172 65.9102V68.4492C38.6328 68.6966 39.8438 68.9245 41.25 69.1328L44.6094 69.6797C45.4688 69.8099 46.3477 69.9596 47.2461 70.1289L46.0938 74.4062C42.513 73.8464 38.7109 72.9414 34.6875 71.6914C33.763 71.3919 33.2878 70.8516 33.2617 70.0703L33.125 59.9922ZM42.5781 61.5938C42.5781 60.3698 42.4544 59.0807 42.207 57.7266C41.6862 57.7266 41.2695 57.7526 40.957 57.8047C40.6445 57.8568 40.332 57.9284 40.0195 58.0195C39.707 58.1107 39.388 58.2148 39.0625 58.332C38.2943 58.6055 37.7865 58.8398 37.5391 59.0352V62.5508L42.5781 62.0039V61.5938ZM50.5664 72.6094C50.8789 70.1094 51.6732 67.5898 52.9492 65.0508C53.2878 64.3737 53.6133 63.8073 53.9258 63.3516L55.6641 62.4336C54.2708 60.6888 53.2812 59.4128 52.6953 58.6055L51.1914 56.4375C50.7617 55.7865 50.4492 55.2526 50.2539 54.8359L54.1211 52.0039L59.1016 60.8125L59.5312 60.5781C59.6094 60.3438 59.7266 60.0247 59.8828 59.6211L61.6211 55.0508L62.1484 53.5469C62.3047 53.0911 62.4284 52.7005 62.5195 52.375L66.9336 53.8789C66.7122 54.9727 66.2826 56.151 65.6445 57.4141L64.2578 60.1289C63.7109 61.1706 63.2161 62.0365 62.7734 62.7266L61.2695 63.4883C62.8451 65.4674 63.8607 66.776 64.3164 67.4141L65.5078 69.0742C66.2109 70.0638 66.7122 70.8646 67.0117 71.4766L63.125 74.3281C60 68.8333 58.2747 65.7799 57.9492 65.168L57.4414 65.4023L57.0898 66.3398C56.9466 66.7305 56.7969 67.1667 56.6406 67.6484L56.1523 69.1328C55.5664 70.9427 55.2148 72.3229 55.0977 73.2734L50.5664 72.6094Z" fill="black"/>
</svg>
