<svg width="208" height="58" viewBox="0 0 208 58" fill="none" xmlns="http://www.w3.org/2000/svg">
<path fill-rule="evenodd" clip-rule="evenodd" d="M46.4044 24.3956L25.4588 0.757494C24.5767 -0.240018 22.8662 -0.254721 21.9671 0.727481L0.616952 24.0021C0.310127 24.3365 0.107068 24.7524 0.0320993 25.1996C-0.0427036 25.6467 0.0138953 26.1061 0.194945 26.5218C0.37616 26.9376 0.674047 27.2921 1.05286 27.5424C1.43151 27.7927 1.87487 27.928 2.32898 27.9319L7.02849 27.9724L6.88682 44.3917C6.88153 45.0138 7.12398 45.6125 7.56088 46.0563C7.99761 46.5 8.59322 46.7523 9.21647 46.7576L21.7398 46.8653V43.3968H14.5399V38.1456H26.6609C27.0004 38.1456 27.2994 38.0165 27.5579 37.7583C27.8166 37.4841 27.9458 37.1615 27.9458 36.7904C27.9458 36.4194 27.8166 36.1854 27.5579 36.0886C27.2994 35.9756 27.0004 35.9193 26.6609 35.9193H21.1338C20.2125 35.9193 19.348 35.7498 18.5399 35.411C17.748 35.0561 17.0529 34.5802 16.455 33.9833C15.8733 33.3702 15.4046 32.6603 15.0489 31.8537C14.7095 31.047 14.5399 30.184 14.5399 29.2643C14.5399 28.361 14.7095 27.514 15.0489 26.7233C15.4046 25.9168 15.8733 25.215 16.455 24.618C17.0529 24.0211 17.748 23.5532 18.5399 23.2144C19.348 22.8595 20.2125 22.6821 21.1338 22.6821H21.7398V16.124H26.2004V22.6821H31.873V27.9818H21.1338C20.7621 27.9818 20.4468 28.1108 20.1883 28.3689C19.9297 28.6109 19.8004 28.9094 19.8004 29.2643C19.8004 29.6353 19.9297 29.95 20.1883 30.2081C20.4468 30.4663 20.7621 30.5953 21.1338 30.5953H26.6609C27.566 30.5953 28.4145 30.7486 29.2064 31.0551C30.0145 31.3617 30.7175 31.7892 31.3154 32.3377C31.9134 32.8862 32.382 33.5396 32.7215 34.2978C33.0771 35.0561 33.2548 35.8869 33.2548 36.7904C33.2548 37.7099 33.0771 38.5731 32.7215 39.3798C32.382 40.1865 31.9134 40.8883 31.3154 41.4851C30.7175 42.066 30.0145 42.5338 29.2064 42.8887C28.4145 43.2275 27.566 43.3968 26.6609 43.3968H26.2004V46.9036L37.4135 46.9999C38.0368 47.0054 38.6365 46.7633 39.081 46.3272C39.5255 45.8911 39.7783 45.2967 39.7836 44.6745L39.9252 28.2551L44.6247 28.2955C45.0798 28.3013 45.5267 28.1749 45.9109 27.9316C46.2954 27.6882 46.6004 27.3385 46.789 26.925C46.9777 26.5117 47.0417 26.0524 46.9734 25.6032C46.9052 25.154 46.7075 24.7344 46.4044 24.3956Z" fill="#00847C"/>
<path d="M63.3125 41.709C63.3125 42.8105 63.1133 43.7715 62.7148 44.5918C62.3164 45.4004 61.8066 46.0742 61.1855 46.6133C60.5645 47.1406 59.8789 47.5332 59.1289 47.791C58.3789 48.0605 57.6582 48.1953 56.9668 48.1953C55.8184 48.1953 54.6992 47.9316 53.6094 47.4043C52.5195 46.8887 51.541 46.0801 50.6738 44.9785C49.8184 43.8652 49.127 42.4414 48.5996 40.707C48.084 38.9609 47.8262 36.8691 47.8262 34.4316C47.8262 32.8027 47.9492 31.3496 48.1953 30.0723C48.4531 28.7949 48.793 27.6699 49.2148 26.6973C49.6484 25.7246 50.1523 24.8984 50.7266 24.2188C51.3125 23.5273 51.9395 22.9707 52.6074 22.5488C53.2754 22.1152 53.9668 21.7988 54.6816 21.5996C55.3965 21.4004 56.0996 21.3008 56.791 21.3008C57.834 21.3008 58.7305 21.4473 59.4805 21.7402C60.2422 22.0332 60.8691 22.4082 61.3613 22.8652C61.8535 23.3223 62.2168 23.832 62.4512 24.3945C62.6855 24.957 62.8027 25.5078 62.8027 26.0469C62.8027 26.5859 62.7266 27.0723 62.5742 27.5059C62.4336 27.9277 62.2402 28.2852 61.9941 28.5781C61.748 28.8711 61.4551 29.0938 61.1152 29.2461C60.7754 29.3984 60.4121 29.4746 60.0254 29.4746C59.6973 29.4746 59.3691 29.416 59.041 29.2988C58.7129 29.1816 58.4199 29.0117 58.1621 28.7891C57.9043 28.5664 57.6934 28.2969 57.5293 27.9805C57.377 27.6523 57.3008 27.2832 57.3008 26.873C57.3125 26.6387 57.3418 26.3926 57.3887 26.1348C57.4355 25.9121 57.5059 25.6719 57.5996 25.4141C57.7051 25.1445 57.8574 24.875 58.0566 24.6055C57.8809 24.4414 57.6934 24.3125 57.4941 24.2188C57.2949 24.1133 57.1133 24.0371 56.9492 23.9902C56.75 23.9434 56.5508 23.9082 56.3516 23.8848C55.8945 23.8848 55.4902 24.0254 55.1387 24.3066C54.7871 24.5879 54.4824 24.9805 54.2246 25.4844C53.9668 25.9766 53.75 26.5625 53.5742 27.2422C53.3984 27.9219 53.2578 28.6602 53.1523 29.457C53.0586 30.2539 52.9883 31.0918 52.9414 31.9707C52.8945 32.8379 52.8711 33.7168 52.8711 34.6074C52.8711 35.9434 52.9414 37.2617 53.082 38.5625C53.2344 39.8516 53.4746 41.0117 53.8027 42.043C54.1426 43.0625 54.5879 43.8887 55.1387 44.5215C55.7012 45.1426 56.3867 45.4531 57.1953 45.4531C57.6875 45.418 58.1328 45.2773 58.5312 45.0312C58.707 44.9258 58.877 44.7969 59.041 44.6445C59.2051 44.4805 59.3516 44.2812 59.4805 44.0469C59.6211 43.8008 59.7324 43.5195 59.8145 43.2031C59.9082 42.8867 59.9668 42.5176 59.9902 42.0957C59.791 42.1777 59.5625 42.2188 59.3047 42.2188C59.0234 42.2188 58.748 42.1602 58.4785 42.043C58.2207 41.9141 57.9863 41.7441 57.7754 41.5332C57.5645 41.3105 57.3945 41.0527 57.2656 40.7598C57.1367 40.4551 57.0723 40.1211 57.0723 39.7578C57.0723 39.207 57.1953 38.7559 57.4414 38.4043C57.6992 38.041 57.9922 37.7539 58.3203 37.543C58.6484 37.332 58.9707 37.1855 59.2871 37.1035C59.6035 37.0098 59.8262 36.9629 59.9551 36.9629C60.0488 36.9629 60.1953 36.9805 60.3945 37.0156C60.5938 37.0391 60.8164 37.1035 61.0625 37.209C61.3203 37.3145 61.5781 37.4727 61.8359 37.6836C62.1055 37.8828 62.3457 38.1582 62.5566 38.5098C62.7793 38.8613 62.9609 39.3008 63.1016 39.8281C63.2422 40.3438 63.3125 40.9707 63.3125 41.709ZM69.4648 47.7207L64.7715 48.0723C64.959 45.9746 65.0938 43.9531 65.1758 42.0078C65.2695 40.0508 65.3164 38.0938 65.3164 36.1367C65.3164 34.7539 65.293 33.3711 65.2461 31.9883C65.2109 30.5938 65.1406 29.1641 65.0352 27.6992L68.9902 27.4883C68.9668 27.7461 68.9492 27.998 68.9375 28.2441C68.9258 28.4902 68.9199 28.7305 68.9199 28.9648C69.3301 28.332 69.7754 27.8398 70.2559 27.4883C70.748 27.125 71.2051 26.8613 71.627 26.6973C72.1074 26.498 72.5938 26.375 73.0859 26.3281C73.9414 26.3281 74.6738 26.4629 75.2832 26.7324C75.8926 26.9902 76.3906 27.3301 76.7773 27.752C77.1641 28.1621 77.4453 28.625 77.6211 29.1406C77.7969 29.6445 77.8848 30.1367 77.8848 30.6172C77.8848 31.1094 77.832 31.6074 77.7266 32.1113C77.6211 32.6152 77.4395 33.0723 77.1816 33.4824C76.9355 33.8809 76.6016 34.209 76.1797 34.4668C75.7695 34.7129 75.2598 34.8359 74.6504 34.8359C74.041 34.8359 73.5605 34.7246 73.209 34.502C72.8574 34.2793 72.5879 34.0156 72.4004 33.7109C72.2246 33.3945 72.1074 33.0723 72.0488 32.7441C72.002 32.4043 71.9785 32.1172 71.9785 31.8828C71.9785 31.7188 72.0078 31.5371 72.0664 31.3379C72.125 31.127 72.2129 30.916 72.3301 30.7051C72.4473 30.4941 72.5938 30.2891 72.7695 30.0898C72.9453 29.8789 73.1504 29.6855 73.3848 29.5098C73.3145 29.4863 73.2383 29.4688 73.1562 29.457C73.0859 29.4453 73.0156 29.4395 72.9453 29.4395C72.3594 29.4395 71.8379 29.627 71.3809 30.002C70.9238 30.3652 70.5254 30.875 70.1855 31.5312C69.8574 32.1875 69.582 32.9609 69.3594 33.8516C69.1484 34.7422 68.9902 35.7148 68.8848 36.7695C68.9434 38.5859 69.0254 40.3848 69.1309 42.166C69.2363 43.9473 69.3477 45.7988 69.4648 47.7207ZM91.7188 43.2207C91.7188 43.9121 91.5605 44.5625 91.2441 45.1719C90.9277 45.7812 90.5 46.3086 89.9609 46.7539C89.4219 47.1992 88.7891 47.5508 88.0625 47.8086C87.3359 48.0664 86.5625 48.1953 85.7422 48.1953C85.1914 48.1953 84.6348 48.1191 84.0723 47.9668C83.5098 47.8145 82.9707 47.5625 82.4551 47.2109C81.9395 46.8594 81.4531 46.3965 80.9961 45.8223C80.5391 45.248 80.1406 44.5449 79.8008 43.7129C79.4727 42.8809 79.209 41.9082 79.0098 40.7949C78.8223 39.6699 78.7285 38.3809 78.7285 36.9277C78.7285 35.5566 78.8223 34.3438 79.0098 33.2891C79.209 32.2344 79.4727 31.3145 79.8008 30.5293C80.1406 29.7441 80.5332 29.0879 80.9785 28.5605C81.4238 28.0215 81.8984 27.5879 82.4023 27.2598C82.918 26.9199 83.4453 26.6797 83.9844 26.5391C84.5352 26.3984 85.0742 26.3281 85.6016 26.3281C86.3867 26.3281 87.1309 26.457 87.834 26.7148C88.5371 26.9609 89.1523 27.3301 89.6797 27.8223C90.207 28.3145 90.623 28.9238 90.9277 29.6504C91.2441 30.3652 91.4023 31.1914 91.4023 32.1289C91.4023 32.9727 91.2266 33.8281 90.875 34.6953C90.5352 35.5508 90.0254 36.3652 89.3457 37.1387C88.666 37.9004 87.8223 38.5977 86.8145 39.2305C85.8184 39.8516 84.6699 40.3438 83.3691 40.707C83.4395 41.4336 83.5391 42.0957 83.668 42.6934C83.8086 43.291 83.9785 43.8008 84.1777 44.2227C84.3887 44.6445 84.6289 44.9727 84.8984 45.207C85.1797 45.4414 85.502 45.5586 85.8652 45.5586C86.0996 45.5469 86.3223 45.5059 86.5332 45.4355C86.7207 45.377 86.9082 45.2832 87.0957 45.1543C87.2949 45.0254 87.459 44.8379 87.5879 44.5918C87.2832 44.4512 87.0488 44.2695 86.8848 44.0469C86.7207 43.8242 86.5977 43.6133 86.5156 43.4141C86.4219 43.1797 86.3691 42.9336 86.3574 42.6758C86.3574 42.1133 86.4688 41.6562 86.6914 41.3047C86.9141 40.9531 87.1777 40.6777 87.4824 40.4785C87.7871 40.2793 88.0977 40.1445 88.4141 40.0742C88.7305 39.9922 88.9824 39.9512 89.1699 39.9512C89.3691 39.9512 89.6094 39.9922 89.8906 40.0742C90.1836 40.1562 90.4648 40.3145 90.7344 40.5488C91.0039 40.7832 91.2324 41.1172 91.4199 41.5508C91.6191 41.9727 91.7188 42.5293 91.7188 43.2207ZM87.377 32.1641C87.377 31.7422 87.3359 31.3438 87.2539 30.9688C87.1836 30.582 87.0723 30.248 86.9199 29.9668C86.7793 29.6855 86.5977 29.4629 86.375 29.2988C86.1641 29.123 85.918 29.0352 85.6367 29.0352C85.1562 29.0352 84.7637 29.2578 84.459 29.7031C84.1543 30.1367 83.9082 30.7168 83.7207 31.4434C83.5332 32.1699 83.4043 33.0078 83.334 33.957C83.2637 34.9062 83.2285 35.8965 83.2285 36.9277V38.2109C83.8262 37.8945 84.377 37.5195 84.8809 37.0859C85.3965 36.6523 85.8359 36.1777 86.1992 35.6621C86.5742 35.1348 86.8613 34.5781 87.0605 33.9922C87.2715 33.4062 87.377 32.7969 87.377 32.1641ZM106.854 47.0352L102.037 47.791C101.674 46.7363 101.293 45.7109 100.895 44.7148C100.496 43.707 100.074 42.7051 99.6289 41.709C99.2891 42.6113 98.9668 43.543 98.6621 44.5039C98.3691 45.4531 98.0762 46.4551 97.7832 47.5098L92.4922 46.9648C93.4297 45.2891 94.3262 43.6953 95.1816 42.1836C96.0488 40.6602 96.8809 39.1309 97.6777 37.5957C96.8691 35.9668 96.0195 34.3613 95.1289 32.7793C94.2383 31.1855 93.3242 29.5566 92.3867 27.8926L97.4668 27.6641C97.7949 28.7188 98.1289 29.7324 98.4688 30.7051C98.8203 31.6777 99.1953 32.6211 99.5938 33.5352C99.9922 32.6562 100.367 31.748 100.719 30.8105C101.082 29.873 101.422 28.9004 101.738 27.8926L106.678 28.3848C105.611 29.9902 104.645 31.5254 103.777 32.9902C102.91 34.4551 102.125 35.9316 101.422 37.4199C102.23 39.0137 103.086 40.5957 103.988 42.166C104.902 43.7363 105.857 45.3594 106.854 47.0352ZM120.635 32.0586C120.635 32.8672 120.523 33.5117 120.301 33.9922C120.09 34.4609 119.832 34.8184 119.527 35.0645C119.234 35.2988 118.93 35.4512 118.613 35.5215C118.309 35.5918 118.057 35.627 117.857 35.627C117.658 35.627 117.418 35.5977 117.137 35.5391C116.855 35.4688 116.58 35.3398 116.311 35.1523C116.053 34.9531 115.83 34.6777 115.643 34.3262C115.467 33.9629 115.379 33.4941 115.379 32.9199C115.391 32.6035 115.449 32.293 115.555 31.9883C115.648 31.7305 115.789 31.4668 115.977 31.1973C116.164 30.9277 116.434 30.6992 116.785 30.5117C116.586 30.0664 116.363 29.7266 116.117 29.4922C115.883 29.2578 115.654 29.082 115.432 28.9648C115.174 28.8359 114.916 28.7539 114.658 28.7188C114.225 28.7188 113.832 28.918 113.48 29.3164C113.129 29.7148 112.83 30.2773 112.584 31.0039C112.338 31.7188 112.145 32.5801 112.004 33.5879C111.875 34.5957 111.811 35.709 111.811 36.9277C111.811 38.1348 111.852 39.2656 111.934 40.3203C112.027 41.3633 112.174 42.2773 112.373 43.0625C112.572 43.8359 112.842 44.4453 113.182 44.8906C113.521 45.3359 113.943 45.5586 114.447 45.5586C114.717 45.5469 114.986 45.4824 115.256 45.3652C115.49 45.2715 115.736 45.1191 115.994 44.9082C116.264 44.6855 116.504 44.375 116.715 43.9766C116.305 43.7773 115.988 43.5371 115.766 43.2559C115.555 42.9629 115.402 42.6816 115.309 42.4121C115.191 42.0957 115.127 41.7676 115.115 41.4277C115.115 40.8652 115.227 40.4082 115.449 40.0566C115.672 39.7051 115.936 39.4297 116.24 39.2305C116.545 39.0195 116.855 38.8789 117.172 38.8086C117.488 38.7266 117.74 38.6855 117.928 38.6855C118.127 38.6855 118.373 38.7266 118.666 38.8086C118.959 38.8906 119.24 39.0488 119.51 39.2832C119.779 39.5176 120.008 39.8516 120.195 40.2852C120.395 40.707 120.494 41.2637 120.494 41.9551C120.494 42.6465 120.324 43.3613 119.984 44.0996C119.656 44.8379 119.205 45.5117 118.631 46.1211C118.068 46.7305 117.412 47.2285 116.662 47.6152C115.924 48.002 115.145 48.1953 114.324 48.1953C113.773 48.1953 113.217 48.1191 112.654 47.9668C112.092 47.8145 111.553 47.5625 111.037 47.2109C110.521 46.8594 110.035 46.3965 109.578 45.8223C109.121 45.248 108.723 44.5449 108.383 43.7129C108.055 42.8809 107.791 41.9082 107.592 40.7949C107.404 39.6699 107.311 38.3809 107.311 36.9277C107.311 35.4746 107.416 34.2031 107.627 33.1133C107.838 32.0117 108.125 31.0684 108.488 30.2832C108.863 29.498 109.291 28.8477 109.771 28.332C110.252 27.8164 110.762 27.4062 111.301 27.1016C111.852 26.7969 112.414 26.5859 112.988 26.4688C113.562 26.3516 114.119 26.293 114.658 26.293C115.455 26.293 116.217 26.4453 116.943 26.75C117.67 27.043 118.303 27.4531 118.842 27.9805C119.393 28.4961 119.826 29.1055 120.143 29.8086C120.471 30.5117 120.635 31.2617 120.635 32.0586ZM128.703 48.002C127.543 48.002 126.541 47.75 125.697 47.2461C124.865 46.7422 124.174 46.0391 123.623 45.1367C123.084 44.2344 122.686 43.1621 122.428 41.9199C122.17 40.6777 122.041 39.3242 122.041 37.8594C122.041 36.1602 122.193 34.6016 122.498 33.1836C122.803 31.7656 123.248 30.5469 123.834 29.5273C124.432 28.5078 125.164 27.7168 126.031 27.1543C126.91 26.5801 127.918 26.293 129.055 26.293C130.203 26.293 131.193 26.5332 132.025 27.0137C132.857 27.4941 133.543 28.168 134.082 29.0352C134.633 29.9023 135.037 30.9395 135.295 32.1465C135.553 33.3535 135.682 34.6836 135.682 36.1367C135.682 36.8867 135.635 37.7012 135.541 38.5801C135.459 39.459 135.312 40.3379 135.102 41.2168C134.902 42.0957 134.633 42.9453 134.293 43.7656C133.953 44.5742 133.525 45.2949 133.01 45.9277C132.494 46.5605 131.879 47.0645 131.164 47.4395C130.461 47.8145 129.641 48.002 128.703 48.002ZM131.445 34.8359C131.445 33.9453 131.404 33.1484 131.322 32.4453C131.24 31.7305 131.105 31.127 130.918 30.6348C130.742 30.1426 130.514 29.7676 130.232 29.5098C129.963 29.2402 129.635 29.1055 129.248 29.1055C128.826 29.1055 128.434 29.3281 128.07 29.7734C127.707 30.2188 127.385 30.8633 127.104 31.707C126.834 32.5508 126.617 33.582 126.453 34.8008C126.301 36.0078 126.225 37.373 126.225 38.8965C126.225 39.8809 126.271 40.7656 126.365 41.5508C126.459 42.3242 126.6 42.9863 126.787 43.5371C126.975 44.0762 127.203 44.4922 127.473 44.7852C127.754 45.0664 128.082 45.207 128.457 45.207C128.832 45.207 129.166 45.0547 129.459 44.75C129.752 44.4336 130.004 44.0117 130.215 43.4844C130.438 42.957 130.625 42.3477 130.777 41.6562C130.941 40.9531 131.07 40.2207 131.164 39.459C131.258 38.6855 131.328 37.9004 131.375 37.1035C131.422 36.3066 131.445 35.5508 131.445 34.8359ZM142.309 27.5234L142.203 28.9648C142.59 28.3203 143 27.8281 143.434 27.4883C143.879 27.1484 144.289 26.9082 144.664 26.7676C145.039 26.627 145.35 26.5508 145.596 26.5391C145.854 26.5273 145.994 26.5215 146.018 26.5215C146.885 26.5215 147.641 26.7207 148.285 27.1191C148.93 27.5176 149.463 28.0977 149.885 28.8594C150.307 29.6094 150.617 30.5293 150.816 31.6191C151.027 32.6973 151.133 33.9219 151.133 35.293C151.133 36.3008 151.115 37.332 151.08 38.3867C151.057 39.4297 150.998 40.4727 150.904 41.5156C150.822 42.5469 150.705 43.5547 150.553 44.5391C150.412 45.5234 150.219 46.4609 149.973 47.3516L145.877 46.8594C146.146 45.4648 146.357 44.1641 146.51 42.957C146.662 41.75 146.773 40.6953 146.844 39.793C146.926 38.7383 146.973 37.7715 146.984 36.8926C146.984 35.7793 146.949 34.8125 146.879 33.9922C146.809 33.1602 146.68 32.4746 146.492 31.9355C146.316 31.3848 146.07 30.9746 145.754 30.7051C145.438 30.4355 145.033 30.3008 144.541 30.3008C144.213 30.3711 143.885 30.6055 143.557 31.0039C143.275 31.3438 142.977 31.8887 142.66 32.6387C142.344 33.377 142.068 34.4199 141.834 35.7676C141.799 36.6816 141.775 37.5898 141.764 38.4922C141.764 39.3828 141.764 40.332 141.764 41.3398C141.764 42.1953 141.764 43.1152 141.764 44.0996C141.764 45.084 141.775 46.1973 141.799 47.4395L137.809 47.3516C137.844 46.1562 137.867 44.8906 137.879 43.5547C137.902 42.207 137.914 40.7129 137.914 39.0723C137.914 37.4434 137.902 35.6797 137.879 33.7812C137.855 31.8828 137.809 29.7734 137.738 27.4531L142.309 27.5234ZM158.023 27.5234L157.918 28.9648C158.305 28.3203 158.715 27.8281 159.148 27.4883C159.594 27.1484 160.004 26.9082 160.379 26.7676C160.754 26.627 161.064 26.5508 161.311 26.5391C161.568 26.5273 161.709 26.5215 161.732 26.5215C162.6 26.5215 163.355 26.7207 164 27.1191C164.645 27.5176 165.178 28.0977 165.6 28.8594C166.021 29.6094 166.332 30.5293 166.531 31.6191C166.742 32.6973 166.848 33.9219 166.848 35.293C166.848 36.3008 166.83 37.332 166.795 38.3867C166.771 39.4297 166.713 40.4727 166.619 41.5156C166.537 42.5469 166.42 43.5547 166.268 44.5391C166.127 45.5234 165.934 46.4609 165.688 47.3516L161.592 46.8594C161.861 45.4648 162.072 44.1641 162.225 42.957C162.377 41.75 162.488 40.6953 162.559 39.793C162.641 38.7383 162.688 37.7715 162.699 36.8926C162.699 35.7793 162.664 34.8125 162.594 33.9922C162.523 33.1602 162.395 32.4746 162.207 31.9355C162.031 31.3848 161.785 30.9746 161.469 30.7051C161.152 30.4355 160.748 30.3008 160.256 30.3008C159.928 30.3711 159.6 30.6055 159.271 31.0039C158.99 31.3438 158.691 31.8887 158.375 32.6387C158.059 33.377 157.783 34.4199 157.549 35.7676C157.514 36.6816 157.49 37.5898 157.479 38.4922C157.479 39.3828 157.479 40.332 157.479 41.3398C157.479 42.1953 157.479 43.1152 157.479 44.0996C157.479 45.084 157.49 46.1973 157.514 47.4395L153.523 47.3516C153.559 46.1562 153.582 44.8906 153.594 43.5547C153.617 42.207 153.629 40.7129 153.629 39.0723C153.629 37.4434 153.617 35.6797 153.594 33.7812C153.57 31.8828 153.523 29.7734 153.453 27.4531L158.023 27.5234ZM181.648 43.2207C181.648 43.9121 181.49 44.5625 181.174 45.1719C180.857 45.7812 180.43 46.3086 179.891 46.7539C179.352 47.1992 178.719 47.5508 177.992 47.8086C177.266 48.0664 176.492 48.1953 175.672 48.1953C175.121 48.1953 174.564 48.1191 174.002 47.9668C173.439 47.8145 172.9 47.5625 172.385 47.2109C171.869 46.8594 171.383 46.3965 170.926 45.8223C170.469 45.248 170.07 44.5449 169.73 43.7129C169.402 42.8809 169.139 41.9082 168.939 40.7949C168.752 39.6699 168.658 38.3809 168.658 36.9277C168.658 35.5566 168.752 34.3438 168.939 33.2891C169.139 32.2344 169.402 31.3145 169.73 30.5293C170.07 29.7441 170.463 29.0879 170.908 28.5605C171.354 28.0215 171.828 27.5879 172.332 27.2598C172.848 26.9199 173.375 26.6797 173.914 26.5391C174.465 26.3984 175.004 26.3281 175.531 26.3281C176.316 26.3281 177.061 26.457 177.764 26.7148C178.467 26.9609 179.082 27.3301 179.609 27.8223C180.137 28.3145 180.553 28.9238 180.857 29.6504C181.174 30.3652 181.332 31.1914 181.332 32.1289C181.332 32.9727 181.156 33.8281 180.805 34.6953C180.465 35.5508 179.955 36.3652 179.275 37.1387C178.596 37.9004 177.752 38.5977 176.744 39.2305C175.748 39.8516 174.6 40.3438 173.299 40.707C173.369 41.4336 173.469 42.0957 173.598 42.6934C173.738 43.291 173.908 43.8008 174.107 44.2227C174.318 44.6445 174.559 44.9727 174.828 45.207C175.109 45.4414 175.432 45.5586 175.795 45.5586C176.029 45.5469 176.252 45.5059 176.463 45.4355C176.65 45.377 176.838 45.2832 177.025 45.1543C177.225 45.0254 177.389 44.8379 177.518 44.5918C177.213 44.4512 176.979 44.2695 176.814 44.0469C176.65 43.8242 176.527 43.6133 176.445 43.4141C176.352 43.1797 176.299 42.9336 176.287 42.6758C176.287 42.1133 176.398 41.6562 176.621 41.3047C176.844 40.9531 177.107 40.6777 177.412 40.4785C177.717 40.2793 178.027 40.1445 178.344 40.0742C178.66 39.9922 178.912 39.9512 179.1 39.9512C179.299 39.9512 179.539 39.9922 179.82 40.0742C180.113 40.1562 180.395 40.3145 180.664 40.5488C180.934 40.7832 181.162 41.1172 181.35 41.5508C181.549 41.9727 181.648 42.5293 181.648 43.2207ZM177.307 32.1641C177.307 31.7422 177.266 31.3438 177.184 30.9688C177.113 30.582 177.002 30.248 176.85 29.9668C176.709 29.6855 176.527 29.4629 176.305 29.2988C176.094 29.123 175.848 29.0352 175.566 29.0352C175.086 29.0352 174.693 29.2578 174.389 29.7031C174.084 30.1367 173.838 30.7168 173.65 31.4434C173.463 32.1699 173.334 33.0078 173.264 33.957C173.193 34.9062 173.158 35.8965 173.158 36.9277V38.2109C173.756 37.8945 174.307 37.5195 174.811 37.0859C175.326 36.6523 175.766 36.1777 176.129 35.6621C176.504 35.1348 176.791 34.5781 176.99 33.9922C177.201 33.4062 177.307 32.7969 177.307 32.1641ZM196.432 32.0586C196.432 32.8672 196.32 33.5117 196.098 33.9922C195.887 34.4609 195.629 34.8184 195.324 35.0645C195.031 35.2988 194.727 35.4512 194.41 35.5215C194.105 35.5918 193.854 35.627 193.654 35.627C193.455 35.627 193.215 35.5977 192.934 35.5391C192.652 35.4688 192.377 35.3398 192.107 35.1523C191.85 34.9531 191.627 34.6777 191.439 34.3262C191.264 33.9629 191.176 33.4941 191.176 32.9199C191.188 32.6035 191.246 32.293 191.352 31.9883C191.445 31.7305 191.586 31.4668 191.773 31.1973C191.961 30.9277 192.23 30.6992 192.582 30.5117C192.383 30.0664 192.16 29.7266 191.914 29.4922C191.68 29.2578 191.451 29.082 191.229 28.9648C190.971 28.8359 190.713 28.7539 190.455 28.7188C190.021 28.7188 189.629 28.918 189.277 29.3164C188.926 29.7148 188.627 30.2773 188.381 31.0039C188.135 31.7188 187.941 32.5801 187.801 33.5879C187.672 34.5957 187.607 35.709 187.607 36.9277C187.607 38.1348 187.648 39.2656 187.73 40.3203C187.824 41.3633 187.971 42.2773 188.17 43.0625C188.369 43.8359 188.639 44.4453 188.979 44.8906C189.318 45.3359 189.74 45.5586 190.244 45.5586C190.514 45.5469 190.783 45.4824 191.053 45.3652C191.287 45.2715 191.533 45.1191 191.791 44.9082C192.061 44.6855 192.301 44.375 192.512 43.9766C192.102 43.7773 191.785 43.5371 191.562 43.2559C191.352 42.9629 191.199 42.6816 191.105 42.4121C190.988 42.0957 190.924 41.7676 190.912 41.4277C190.912 40.8652 191.023 40.4082 191.246 40.0566C191.469 39.7051 191.732 39.4297 192.037 39.2305C192.342 39.0195 192.652 38.8789 192.969 38.8086C193.285 38.7266 193.537 38.6855 193.725 38.6855C193.924 38.6855 194.17 38.7266 194.463 38.8086C194.756 38.8906 195.037 39.0488 195.307 39.2832C195.576 39.5176 195.805 39.8516 195.992 40.2852C196.191 40.707 196.291 41.2637 196.291 41.9551C196.291 42.6465 196.121 43.3613 195.781 44.0996C195.453 44.8379 195.002 45.5117 194.428 46.1211C193.865 46.7305 193.209 47.2285 192.459 47.6152C191.721 48.002 190.941 48.1953 190.121 48.1953C189.57 48.1953 189.014 48.1191 188.451 47.9668C187.889 47.8145 187.35 47.5625 186.834 47.2109C186.318 46.8594 185.832 46.3965 185.375 45.8223C184.918 45.248 184.52 44.5449 184.18 43.7129C183.852 42.8809 183.588 41.9082 183.389 40.7949C183.201 39.6699 183.107 38.3809 183.107 36.9277C183.107 35.4746 183.213 34.2031 183.424 33.1133C183.635 32.0117 183.922 31.0684 184.285 30.2832C184.66 29.498 185.088 28.8477 185.568 28.332C186.049 27.8164 186.559 27.4062 187.098 27.1016C187.648 26.7969 188.211 26.5859 188.785 26.4688C189.359 26.3516 189.916 26.293 190.455 26.293C191.252 26.293 192.014 26.4453 192.74 26.75C193.467 27.043 194.1 27.4531 194.639 27.9805C195.189 28.4961 195.623 29.1055 195.939 29.8086C196.268 30.5117 196.432 31.2617 196.432 32.0586ZM204.535 20.2812C204.441 21.4883 204.365 22.6777 204.307 23.8496C204.248 25.0098 204.189 26.1758 204.131 27.3477C204.646 27.3242 205.156 27.3066 205.66 27.2949C206.164 27.2715 206.68 27.2422 207.207 27.207L207.277 31.707C206.715 31.6133 206.158 31.5371 205.607 31.4785C205.057 31.4199 204.518 31.373 203.99 31.3379C203.955 32.334 203.932 33.3184 203.92 34.291C203.92 35.2637 203.92 36.248 203.92 37.2441C203.92 39.0254 203.938 40.7949 203.973 42.5527C204.02 44.3105 204.09 46.0801 204.184 47.8613L199.596 47.791C199.748 45.0371 199.871 42.2891 199.965 39.5469C200.07 36.793 200.141 34.0215 200.176 31.2324C199.684 31.2559 199.191 31.2852 198.699 31.3203C198.207 31.3438 197.703 31.373 197.188 31.4082L197.328 27.2422C197.809 27.2773 198.283 27.3066 198.752 27.3301C199.232 27.3418 199.707 27.3594 200.176 27.3828C200.176 26.2109 200.164 25.0449 200.141 23.8848C200.117 22.7129 200.094 21.5352 200.07 20.3516L204.535 20.2812Z" fill="black"/>
</svg>
